<svg xmlns='http://www.w3.org/2000/svg' viewBox="0 0 270 270">
  <path
     d="M 255.9537,58.150081 237.69527,40.997278 c -1.49414,-1.375593 -3.43653,-2.077427 -5.37891,-2.077427 -1.94239,0 -3.88478,0.701834 -5.37892,2.077427 L 29.919751,226.1128 c -2.988286,2.77926 -2.988286,7.32714 0,10.13447 L 48.148295,253.372 c 1.46426,1.37559 3.406646,2.1055 5.378915,2.1055 1.972268,0 3.884771,-0.72991 5.378914,-2.1055 L 221.34935,100.73732 255.9537,68.284552 c 2.9584,-2.807333 2.9584,-7.355212 0,-10.134471 z M 251.17244,63.79282 221.34935,91.781927 201.89561,73.506191 231.68882,45.48901 c 0.20918,-0.140367 0.38847,-0.224587 0.62754,-0.224587 0.23906,0 0.44824,0.08422 0.59765,0.224587 l 18.25843,17.152803 c 0,0 0.23906,0.33688 0.23906,0.561467 0,0.224586 -0.0896,0.4211 -0.23906,0.58954 z"
     style="stroke-width:2.8964;stroke-opacity:1" />
  <path
     d="m 48.626421,116.87948 10.578532,23.10435 c 0.83672,1.82477 3.615826,1.85284 4.452546,0 l 10.937126,-23.52545 c 2.629692,-5.69888 7.470715,-10.24676 13.536935,-12.71722 l 25.07172,-10.274833 c 1.94239,-0.786053 1.94239,-3.396873 0,-4.182926 L 88.13156,79.008563 C 82.06534,76.53811 77.224317,71.990231 74.594625,66.291346 L 63.657499,42.737824 c -0.83672,-1.824766 -3.615826,-1.824766 -4.452546,0 L 48.267826,66.291346 C 45.638135,71.990231 40.797112,76.53811 34.730891,79.008563 L 9.6292894,89.311474 c -1.9423859,0.786054 -1.9423859,3.3688 0,4.182926 l 25.5498446,10.61172 c 6.036338,2.49852 10.847478,7.07448 13.477169,12.77336 z"
     style="stroke-width:2.8964;fill-opacity:1;stroke-opacity:1" />
  <path
     d="m 111.79878,33.136746 13.56682,5.642739 c 3.19747,1.319446 5.76739,3.761826 7.14201,6.793745 l 5.61797,12.268044 c 0.44825,0.982567 1.91251,0.982567 2.36075,0 l 5.79727,-12.492631 c 1.4045,-3.031919 3.97442,-5.446225 7.20177,-6.765672 l 13.29788,-5.446225 c 1.0459,-0.4211 1.0459,-1.796693 0,-2.217793 l -13.29788,-5.446225 c -3.22735,-1.319447 -5.79727,-3.733753 -7.20177,-6.765672 L 140.48633,6.2144248 c -0.44824,-0.9825664 -1.9125,-0.9825664 -2.36075,0 l -5.79727,12.4926312 c -1.4045,3.031919 -3.97442,5.446225 -7.20177,6.765672 l -13.32776,5.474298 c -1.01601,0.4211 -1.0459,1.796693 0,2.217793 z"
     style="stroke-width:2.8964;fill-opacity:1" />
  <path
     d="m 233.09331,192.98627 -14.13459,-5.7831 c -3.40665,-1.40367 -6.12599,-3.95834 -7.62013,-7.1587 l -6.15587,-13.27868 c -0.47813,-1.03872 -2.03203,-1.03872 -2.51016,0 l -6.15587,13.27868 c -1.49414,3.20036 -4.21348,5.75503 -7.62013,7.1587 l -14.13459,5.81118 c -1.10567,0.44917 -1.10567,1.90898 0,2.35816 l 14.40354,5.97961 c 3.40664,1.40367 6.12598,3.98642 7.59024,7.21485 l 5.97658,13.02602 c 0.47812,1.03872 2.03203,1.03872 2.51016,0 l 6.15586,-13.25061 c 1.49415,-3.20036 4.21349,-5.75503 7.62013,-7.1587 l 14.1346,-5.7831 c 1.10566,-0.44917 1.10566,-1.90899 0,-2.35816 z"
     style="stroke-width:2.8964;stroke-opacity:1" />
</svg>
