<svg xmlns='http://www.w3.org/2000/svg' viewBox="0 0 24 24">
	<g
		transform="scale(1.2 1.2) translate(-2 -0.5)">
		<path
			d="M 22,12.5 A 1.49995,1.49995 0 0 0 20.50006,11 H 20 V 10 A 3,3 0 0 0 17,7 H 13 V 5.7226 a 2,2 0 1 0 -2,0 V 7 H 7 a 3,3 0 0 0 -3,3 v 1 H 3.49994 a 1.5,1.5 0 0 0 0,3 H 4 v 1 A 3.00128,3.00128 0 0 0 6.20251,17.89282 1.03113,1.03113 0 0 1 7,18.86975 v 0.716 a 0.99928,0.99928 0 0 0 1.00726,1.002 0.9792,0.9792 0 0 0 0.69983,-0.29486 l 2,-2 A 1,1 0 0 1 11.41425,18 H 17 a 3,3 0 0 0 3,-3 v -1 h 0.50006 A 1.49995,1.49995 0 0 0 22,12.5 Z M 19,15 a 2.00226,2.00226 0 0 1 -2,2 H 11.41425 A 1.987,1.987 0 0 0 10,17.58575 l -2,2 v -0.716 A 2.02082,2.02082 0 0 0 6.46771,16.92865 2.00439,2.00439 0 0 1 5,15 V 10 A 2.00226,2.00226 0 0 1 7,8 h 10 a 2.00222,2.00222 0 0 1 2,2 z M 10,12.5 A 1.5,1.5 0 1 1 8.5,11 1.5,1.5 0 0 1 10,12.5 Z m 7,0 A 1.5,1.5 0 1 1 15.5,11 1.5,1.5 0 0 1 17,12.5 Z"/>
	</g>
</svg>
