<svg xmlns='http://www.w3.org/2000/svg'
		 viewBox="0 0 312 312">
	<g transform="translate(0.000000,312.000000) scale(0.100000,-0.100000)" stroke="none">
		<path d="M50 3109 c0 -7 -11 -22 -25 -35 l-25 -23 0 -961 0 -961 32 -29 32
-30 501 -2 500 -3 3 -502 2 -502 31 -30 31 -31 958 0 958 0 23 25 c13 13 30
25 37 25 9 0 12 199 12 960 0 686 -3 960 -11 960 -6 0 -24 12 -40 28 l-29 27
-503 5 -502 5 -5 502 -5 503 -28 29 c-15 16 -27 34 -27 40 0 8 -274 11 -960
11 -710 0 -960 -3 -960 -11z m1738 -698 l2 -453 -40 -40 c-22 -22 -40 -43 -40
-47 0 -4 36 -42 79 -85 88 -87 82 -87 141 -23 l26 27 455 -2 454 -3 0 -775 0
-775 -775 0 -775 0 -3 450 -2 449 47 48 47 48 -82 80 c-44 44 -84 80 -87 80
-3 0 -25 -18 -48 -40 l-41 -40 -456 2 -455 3 -3 765 c-1 421 0 771 3 778 3 10
164 12 777 10 l773 -3 3 -454z"/>
		<path d="M607 2492 c-42 -42 -77 -82 -77 -87 0 -6 86 -96 190 -200 105 -104
190 -197 190 -205 0 -8 -41 -56 -92 -107 -65 -65 -87 -94 -77 -98 8 -3 138 -4
289 -3 l275 3 3 275 c1 151 0 281 -3 289 -4 10 -35 -14 -103 -82 -54 -53 -103
-97 -109 -97 -7 0 -99 88 -206 195 -107 107 -196 195 -198 195 -3 0 -39 -35
-82 -78z"/>
		<path d="M1470 1639 c-47 -49 -87 -91 -89 -94 -5 -6 149 -165 160 -165 9 0
189 179 189 188 0 12 -154 162 -165 161 -6 0 -48 -41 -95 -90z"/>
		<path d="M1797 1303 c-9 -8 -9 -568 0 -576 4 -4 50 36 103 88 54 52 101 95
106 95 5 0 95 -85 199 -190 104 -104 194 -190 200 -190 6 0 46 36 90 80 l79
79 -197 196 c-108 108 -197 199 -197 203 0 4 45 52 99 106 55 55 98 103 95
108 -6 10 -568 11 -577 1z"/>
	</g>
</svg>
