<svg enable-background="new 0 0 128 128" viewBox="0 0 128 128" xml:space="preserve" xmlns="http://www.w3.org/2000/svg" xmlns:xlink="http://www.w3.org/1999/xlink">
	<g>
		<path d="M64,107.1c23.8,0,43.1-19.3,43.1-43.1c0-23.8-19.3-43.1-43.1-43.1c-23.8,0-43.1,19.3-43.1,43.1C20.9,87.8,40.2,107.1,64,107.1z M64,24.6c21.8,0,39.4,17.7,39.4,39.4c0,21.8-17.7,39.4-39.4,39.4c-21.8,0-39.5-17.7-39.5-39.4   C24.6,42.2,42.2,24.6,64,24.6z"/>
		<path d="M41.1,57.6c-0.2-1-1.2-1.6-2.1-1.5c-1,0.2-1.6,1.1-1.5,2.1c0.9,4.6,4.9,8,9.6,8c4.6,0,8.7-3.3,9.6-7.8c0.2-1-0.4-2-1.4-2.2   c-1-0.2-2,0.4-2.2,1.4c-0.6,2.8-3.1,4.9-6,4.9C44.2,62.6,41.7,60.5,41.1,57.6z"/>
		<path d="M80.9,66.2c4.6,0,8.7-3.3,9.6-7.8c0.2-1-0.4-2-1.4-2.2c-1-0.2-2,0.4-2.2,1.4c-0.6,2.8-3.1,4.9-6,4.9c-3,0-5.5-2.1-6-5c-0.2-1-1.1-1.6-2.1-1.5c-1,0.2-1.6,1.1-1.5,2.1C72.1,62.9,76.2,66.2,80.9,66.2z"/>
		<path d="M49.6,43.7c1-0.1,1.7-1.1,1.5-2.1c-0.1-1-1.1-1.7-2.1-1.5c-0.5,0.1-11.8,1.9-17.8,14.8c-0.4,0.9,0,2,0.9,2.4   c0.2,0.1,0.5,0.2,0.8,0.2c0.7,0,1.4-0.4,1.7-1.1C39.7,45.4,49.2,43.8,49.6,43.7z"/>
		<path d="M77.8,43.7c0.1,0,9.9,1.5,15,12.7c0.3,0.7,1,1.1,1.7,1.1c0.3,0,0.5-0.1,0.8-0.2c0.9-0.4,1.3-1.5,0.9-2.4   c-6-12.9-17.3-14.7-17.8-14.8c-1-0.1-1.9,0.5-2.1,1.5C76.1,42.6,76.8,43.6,77.8,43.7z"/>
		<path d="M45.6,76.6c-0.5,0-1.1,0.2-1.4,0.7c-0.3,0.4-0.5,1-0.4,1.5c2,10.1,10.7,17.5,20.8,17.5c10.1,0,18.8-7.4,20.8-17.5   c0.1-0.6-0.1-1.3-0.6-1.7c-0.5-0.4-1.2-0.6-1.8-0.3c-5,1.8-10.7,2.8-17,2.8c-10.2,0-18.7-2.5-19.6-2.8   C46.2,76.6,45.8,76.6,45.6,76.6z"/>
	</g>
</svg>
