<svg viewBox="0 0 32 32" xmlns="http://www.w3.org/2000/svg">
	<path
		d="M24.89,6.61H22.31V4.47A2.47,2.47,0,0,0,19.84,2H6.78A2.47,2.47,0,0,0,4.31,4.47V22.92a2.47,2.47,0,0,0,2.47,2.47H9.69V27.2a2.8,2.8,0,0,0,2.8,2.8h12.4a2.8,2.8,0,0,0,2.8-2.8V9.41A2.8,2.8,0,0,0,24.89,6.61ZM6.78,23.52a.61.61,0,0,1-.61-.6V4.47a.61.61,0,0,1,.61-.6H19.84a.61.61,0,0,1,.61.6V6.61h-8a2.8,2.8,0,0,0-2.8,2.8V23.52Zm19,3.68a.94.94,0,0,1-.94.93H12.49a.94.94,0,0,1-.94-.93V9.41a.94.94,0,0,1,.94-.93h12.4a.94.94,0,0,1,.94.93Z"/>
	<path d="M23.49,13.53h-9.6a.94.94,0,1,0,0,1.87h9.6a.94.94,0,1,0,0-1.87Z"/>
	<path d="M23.49,17.37h-9.6a.94.94,0,1,0,0,1.87h9.6a.94.94,0,1,0,0-1.87Z"/>
	<path d="M23.49,21.22h-9.6a.93.93,0,1,0,0,1.86h9.6a.93.93,0,1,0,0-1.86Z"/>
</svg>
