<svg viewBox="0 0 18.151 18.151">
<g>
	<g>
		<path d="M6.237,16.546H3.649V1.604h5.916v5.728c0.474-0.122,0.968-0.194,1.479-0.194
			c0.042,0,0.083,0.006,0.125,0.006V0H2.044v18.15h5.934C7.295,17.736,6.704,17.19,6.237,16.546z"/>
		<path d="M11.169,8.275c-2.723,0-4.938,2.215-4.938,4.938s2.215,4.938,4.938,4.938s4.938-2.215,4.938-4.938
			S13.892,8.275,11.169,8.275z M11.169,16.81c-1.983,0-3.598-1.612-3.598-3.598c0-1.983,1.614-3.597,3.598-3.597
			s3.597,1.613,3.597,3.597C14.766,15.198,13.153,16.81,11.169,16.81z"/>
		<polygon  points="11.792,11.073 10.502,11.073 10.502,12.578 9.03,12.578 9.03,13.868 10.502,13.868
			10.502,15.352 11.792,15.352 11.792,13.868 13.309,13.868 13.309,12.578 11.792,12.578 		"/>
	</g>
</g>
</svg>
