<?xml version="1.0" encoding="iso-8859-1"?>
<!-- Generator: Adobe Illustrator 19.1.0, SVG Export Plug-In . SVG Version: 6.00 Build 0)  -->
<svg version="1.1" id="Capa_1" xmlns="http://www.w3.org/2000/svg" xmlns:xlink="http://www.w3.org/1999/xlink" x="0px" y="0px"
	 viewBox="0 0 432 432" style="enable-background:new 0 0 432 432;" xml:space="preserve">
<g>
	<g>
		<polygon points="203.688,96 0,96 0,144 155.688,144 		"/>
		<polygon points="155.719,288 0,288 0,336 203.719,336 		"/>
		<rect x="252" y="96" width="84" height="48"/>
		<rect width="336" height="48"/>
		<rect x="252" y="288" width="84" height="48"/>
		<rect y="384" width="336" height="48"/>
		<path d="M97.844,230.125c-3.701-3.703-5.856-8.906-5.856-14.141s2.154-10.438,5.856-14.141l9.844-9.844H0v48h107.719
			L97.844,230.125z"/>
		<polygon points="232,176 232,96 112,216 232,336 232,256 432,256 432,176 		"/>
	</g>
	<g>
	</g>
	<g>
	</g>
	<g>
	</g>
	<g>
	</g>
	<g>
	</g>
	<g>
	</g>
	<g>
	</g>
	<g>
	</g>
	<g>
	</g>
	<g>
	</g>
	<g>
	</g>
	<g>
	</g>
	<g>
	</g>
	<g>
	</g>
	<g>
	</g>
</g>
<g>
</g>
<g>
</g>
<g>
</g>
<g>
</g>
<g>
</g>
<g>
</g>
<g>
</g>
<g>
</g>
<g>
</g>
<g>
</g>
<g>
</g>
<g>
</g>
<g>
</g>
<g>
</g>
<g>
</g>
</svg>
