<svg id="Capa_1" enable-background="new 0 0 512 512" height="512" viewBox="0 0 512 512" width="512" xmlns="http://www.w3.org/2000/svg"><g><path d="M 231.00,108.00
           C 231.00,108.00 270.00,108.00 270.00,108.00
             270.00,108.00 270.00,445.00 270.00,445.00
             270.02,458.53 276.43,464.84 290.00,465.00
             290.00,465.00 312.00,465.00 312.00,465.00
             320.26,464.99 327.99,464.07 332.43,455.99
             335.78,449.89 335.00,438.97 335.00,432.00
             335.00,432.00 335.00,384.00 335.00,384.00
             335.00,384.00 335.00,118.00 335.00,118.00
             335.02,107.72 337.27,101.16 349.00,101.00
             349.00,101.00 401.00,101.00 401.00,101.00
             405.14,100.99 409.08,101.02 412.99,99.39
             428.45,92.94 426.02,69.46 426.00,56.00
             425.99,47.84 424.27,41.38 416.00,37.65
             410.85,35.33 399.95,36.00 394.00,36.00
             394.00,36.00 370.00,36.00 370.00,36.00
             370.00,36.00 354.00,35.00 354.00,35.00
             354.00,35.00 209.00,35.00 209.00,35.00
             209.00,35.00 193.00,36.00 193.00,36.00
             193.00,36.00 171.00,36.68 171.00,36.68
             171.00,36.68 160.00,36.00 160.00,36.00
             160.00,36.00 96.00,36.00 96.00,36.00
             83.67,36.02 74.19,39.97 74.00,54.00
             73.82,68.05 71.10,93.87 88.00,99.75
             91.04,100.81 93.83,100.96 97.00,101.00
             97.00,101.00 149.00,101.00 149.00,101.00
             155.17,101.01 159.51,101.10 163.15,107.02
             165.60,111.01 165.00,117.38 165.00,122.00
             165.00,122.00 165.00,151.00 165.00,151.00
             165.00,151.00 166.00,166.00 166.00,166.00
             166.00,166.00 166.00,246.00 166.00,246.00
             166.00,246.00 166.00,389.00 166.00,389.00
             166.00,389.00 165.00,404.00 165.00,404.00
             165.00,404.00 165.00,440.00 165.00,440.00
             165.01,448.03 165.63,457.02 173.04,461.86
             180.23,466.56 199.01,465.01 208.00,465.00
             225.44,464.97 230.92,458.06 231.00,441.00
             231.00,441.00 231.00,345.00 231.00,345.00
             231.00,345.00 231.00,252.00 231.00,252.00
             231.00,252.00 231.00,108.00 231.00,108.00 Z"/></g></svg>