<svg version="1.1"
	 xmlns="http://www.w3.org/2000/svg"
	 xmlns:xlink="http://www.w3.org/1999/xlink"
	 viewBox="0 0 270.044 270.044"
	 xml:space="preserve">
		<path d="M248.015,230.044h-51.058v-11.305c14.969-9.222,27.734-21.692,37.355-36.586c12.326-19.081,18.842-41.22,18.842-64.023
			C253.154,52.993,200.16,0,135.022,0S16.891,52.993,16.891,118.131c0,22.803,6.516,44.941,18.843,64.023
			c9.621,14.894,22.387,27.363,37.355,36.585v11.305h-51.06c-11.046,0-20,8.954-20,20c0,11.046,8.954,20,20,20h71.06
			c11.046,0,20-8.954,20-20V206.87c0-7.732-4.456-14.77-11.444-18.077c-27.187-12.868-44.754-40.604-44.754-70.662
			C56.891,75.05,91.94,40,135.022,40c43.082,0,78.132,35.05,78.132,78.131c0,30.057-17.567,57.794-44.754,70.662
			c-6.987,3.308-11.443,10.346-11.443,18.077v43.174c0,11.046,8.954,20,20,20h71.058c11.046,0,20-8.954,20-20
			C268.015,238.998,259.061,230.044,248.015,230.044z"/>
</svg>
