<svg viewBox="0 0 270 270">
	<path d="m240.443652,220.45085l-47.410809,0l0,-10.342138c13.89973,-8.43655 25.752896,-19.844464 34.686646,-33.469923c11.445525,-17.455846 17.496072,-37.709239 17.496072,-58.570077c0,-59.589197 -49.208516,-108.068714 -109.693558,-108.068714s-109.69263,48.479517 -109.69263,108.069628c0,20.860839 6.050547,41.113316 17.497001,58.570077c8.93375,13.625459 20.787845,25.032458 34.686646,33.469008l0,10.342138l-47.412666,0c-10.256959,0 -18.571354,8.191376 -18.571354,18.296574c0,10.105198 8.314395,18.296574 18.571354,18.296574l65.98402,0c10.256959,0 18.571354,-8.191376 18.571354,-18.296574l0,-39.496814c0,-7.073455 -4.137698,-13.51202 -10.626529,-16.537358c-25.24497,-11.772016 -41.557118,-37.145704 -41.557118,-64.643625c0,-39.411735 32.545369,-71.476481 72.549922,-71.476481c40.004553,0 72.550851,32.064746 72.550851,71.476481c0,27.497006 -16.312149,52.87161 -41.557118,64.643625c-6.487902,3.026253 -10.6256,9.464818 -10.6256,16.537358l0,39.496814c0,10.105198 8.314395,18.296574 18.571354,18.296574l65.982163,0c10.256959,0 18.571354,-8.191376 18.571354,-18.296574c0,-10.105198 -8.314395,-18.296574 -18.571354,-18.296574z"/>
</svg>