<svg viewBox="0 0 24 24"
    >
    <g>
        <g transform="translate(-251.000000, -443.000000)">
            <g transform="translate(215.000000, 119.000000)"/>
            <path d="M252,448 L256,448 L256,444 L252,444 L252,448 Z M257,448 L269,448 L269,446 L257,446 L257,448 Z M257,464 L269,464 L269,462 L257,462 L257,464 Z M270,444 L270,448 L274,448 L274,444 L270,444 Z M252,462 L252,466 L256,466 L256,462 L252,462 Z M270,462 L270,466 L274,466 L274,462 L270,462 Z M254,461 L256,461 L256,449 L254,449 L254,461 Z M270,461 L272,461 L272,449 L270,449 L270,461 Z"/>
        </g>
    </g>
</svg>