<svg viewBox="0 0 18 18">
    <g fill-rule="evenodd" stroke="none" stroke-width="1">
        <g transform="translate(-381.000000, -381.000000)">
            <g transform="translate(381.000000, 381.000000)">
                <path d="M0,2 L2,2 L2,0 C0.9,0 0,0.9 0,2 L0,2 Z M0,10 L2,10 L2,8 L0,8 L0,10 L0,10 Z M4,18 L6,18 L6,16 L4,16 L4,18 L4,18 Z M0,6 L2,6 L2,4 L0,4 L0,6 L0,6 Z M10,0 L8,0 L8,2 L10,2 L10,0 L10,0 Z M16,0 L16,2 L18,2 C18,0.9 17.1,0 16,0 L16,0 Z M2,18 L2,16 L0,16 C0,17.1 0.9,18 2,18 L2,18 Z M0,14 L2,14 L2,12 L0,12 L0,14 L0,14 Z M6,0 L4,0 L4,2 L6,2 L6,0 L6,0 Z M8,18 L10,18 L10,16 L8,16 L8,18 L8,18 Z M16,10 L18,10 L18,8 L16,8 L16,10 L16,10 Z M16,18 C17.1,18 18,17.1 18,16 L16,16 L16,18 L16,18 Z M16,6 L18,6 L18,4 L16,4 L16,6 L16,6 Z M16,14 L18,14 L18,12 L16,12 L16,14 L16,14 Z M12,18 L14,18 L14,16 L12,16 L12,18 L12,18 Z M12,2 L14,2 L14,0 L12,0 L12,2 L12,2 Z M4,14 L14,14 L14,4 L4,4 L4,14 L4,14 Z M6,6 L12,6 L12,12 L6,12 L6,6 L6,6 Z"/>
            </g>
        </g>
    </g>
</svg>