<svg viewBox="0 0 48 48" xmlns="http://www.w3.org/2000/svg">
		<path stroke="null" d="m42.276011,26.302547c0.098397,-0.76605 0.172194,-1.54407 0.172194,-2.33406s-0.073797,-1.56801 -0.172194,-2.33406l5.202718,-3.961917c0.467384,-0.359086 0.602679,-1.005441 0.29519,-1.532101l-4.919828,-8.29489c-0.307489,-0.51469 -0.947067,-0.730142 -1.500548,-0.51469l-6.125186,2.405877c-1.266856,-0.945594 -2.656707,-1.747553 -4.157255,-2.357999l-0.922468,-6.343855c-0.110696,-0.562568 -0.614979,-1.005441 -1.229957,-1.005441l-9.839656,0c-0.614979,0 -1.119261,0.442873 -1.217657,1.005441l-0.922468,6.343855c-1.500548,0.610446 -2.890399,1.400436 -4.157255,2.357999l-6.125186,-2.405877c-0.553481,-0.203482 -1.193058,0 -1.500548,0.51469l-4.919828,8.29489c-0.307489,0.51469 -0.172194,1.161045 0.29519,1.532101l5.190419,3.961917c-0.098397,0.76605 -0.172194,1.54407 -0.172194,2.33406s0.073797,1.56801 0.172194,2.33406l-5.190419,3.961917c-0.467384,0.359086 -0.602679,1.005441 -0.29519,1.532101l4.919828,8.29489c0.307489,0.51469 0.947067,0.730142 1.500548,0.51469l6.125186,-2.405877c1.266856,0.945594 2.656707,1.747553 4.157255,2.357999l0.922468,6.343855c0.098397,0.562568 0.602679,1.005441 1.217657,1.005441l9.839656,0c0.614979,0 1.119261,-0.442873 1.217657,-1.005441l0.922468,-6.343855c1.500548,-0.610446 2.890399,-1.400436 4.157255,-2.357999l6.125186,2.405877c0.553481,0.203482 1.193058,0 1.500548,-0.51469l4.919828,-8.29489c0.307489,-0.51469 0.172194,-1.161045 -0.29519,-1.532101l-5.190419,-3.961917zm-18.277162,6.044617c-4.759934,0 -8.609699,-3.746465 -8.609699,-8.378677s3.849766,-8.378677 8.609699,-8.378677s8.609699,3.746465 8.609699,8.378677s-3.849766,8.378677 -8.609699,8.378677z"/>
</svg>
