<svg viewBox="0 0 13 13" xmlns="http://www.w3.org/2000/svg">
	<path d="M5.9814 11.8049C5.59087 11.4144 5.59087 10.7812 5.9814 10.3907L10.224 6.14806C10.6146 5.75754 11.2477 5.75754 11.6383 6.14806C12.0288 6.53859 12.0288 7.17175 11.6383 7.56228L7.39561 11.8049C7.00509 12.1954 6.37192 12.1954 5.9814 11.8049Z"/>
	<path d="M0.707107 12.0208C0.316582 11.6303 0.316582 10.9971 0.707107 10.6066L10.6066 0.707121C10.9971 0.316597 11.6303 0.316596 12.0208 0.707121C12.4113 1.09764 12.4113 1.73081 12.0208 2.12133L2.12132 12.0208C1.7308 12.4114 1.09763 12.4114 0.707107 12.0208Z"/>
</svg>
